# xmcd
#
# Track frame offsets:
#	150
#	13668
#	27705
#	37467
#	49362
#	62355
#	73460
#	85088
#	95869
#	110588
#	123050
#
# Disc length: 1876 seconds
#
# Revision: 1
# Processed by: cddbd v1.5.2PL0 Copyright (c) Steve Scherf et al.
# Submitted via: audiograbber 1.83.01
#
DISCID=a307520b
DTITLE=Claudy Blue Sky - Christmas with Friends
DYEAR=2009
DGENRE=Xmas
TTITLE0=Santa Claus Is Coming To Town
TTITLE1=Silver Bells
TTITLE2=Rocking Around The Christmas Tree
TTITLE3=Here Comes Santa Claus
TTITLE4=Go Tell It On The Mountain
TTITLE5=Jingle Bell Rock
TTITLE6=Winter Wonderland
TTITLE7=Let It Snow
TTITLE8=Jingle Bells
TTITLE9=The Little Drummer Boy
TTITLE10=Oh, Holy Night
EXTD=
EXTT0=
EXTT1=
EXTT2=
EXTT3=
EXTT4=
EXTT5=
EXTT6=
EXTT7=
EXTT8=
EXTT9=
EXTT10=
PLAYORDER=
